<mxfile host="app.diagrams.net" modified="2024-03-27T21:39:27.003Z" agent="Mozilla/5.0 (Windows NT 10.0; Win64; x64) AppleWebKit/537.36 (KHTML, like Gecko) Chrome/123.0.0.0 Safari/537.36" etag="vLYAKZeErZy3OSiJJiTd" version="24.2.0" type="github">
  <diagram id="C5RBs43oDa-KdzZeNtuy" name="Page-1">
    <mxGraphModel dx="993" dy="1100" grid="1" gridSize="10" guides="1" tooltips="1" connect="1" arrows="1" fold="1" page="1" pageScale="1" pageWidth="1169" pageHeight="1654" math="0" shadow="0">
      <root>
        <mxCell id="WIyWlLk6GJQsqaUBKTNV-0" />
        <mxCell id="WIyWlLk6GJQsqaUBKTNV-1" parent="WIyWlLk6GJQsqaUBKTNV-0" />
        <mxCell id="ASlL8XKFzpHZcGHlF637-8" value="Start" style="strokeWidth=2;html=1;shape=mxgraph.flowchart.start_1;whiteSpace=wrap;" vertex="1" parent="WIyWlLk6GJQsqaUBKTNV-1">
          <mxGeometry x="490" y="30" width="100" height="60" as="geometry" />
        </mxCell>
        <mxCell id="ASlL8XKFzpHZcGHlF637-24" value="" style="edgeStyle=orthogonalEdgeStyle;rounded=0;orthogonalLoop=1;jettySize=auto;html=1;" edge="1" parent="WIyWlLk6GJQsqaUBKTNV-1" source="ASlL8XKFzpHZcGHlF637-11" target="ASlL8XKFzpHZcGHlF637-23">
          <mxGeometry relative="1" as="geometry" />
        </mxCell>
        <mxCell id="ASlL8XKFzpHZcGHlF637-11" value="Create Task manager (local/azure) with Mode and List of files" style="whiteSpace=wrap;html=1;strokeWidth=2;" vertex="1" parent="WIyWlLk6GJQsqaUBKTNV-1">
          <mxGeometry x="480" y="220" width="120" height="60" as="geometry" />
        </mxCell>
        <mxCell id="ASlL8XKFzpHZcGHlF637-14" value="Specify weights and environment&amp;nbsp;" style="whiteSpace=wrap;html=1;strokeWidth=2;" vertex="1" parent="WIyWlLk6GJQsqaUBKTNV-1">
          <mxGeometry x="480" y="120" width="120" height="60" as="geometry" />
        </mxCell>
        <mxCell id="ASlL8XKFzpHZcGHlF637-16" value="" style="endArrow=classic;html=1;rounded=0;entryX=0.5;entryY=0;entryDx=0;entryDy=0;exitX=0.5;exitY=1;exitDx=0;exitDy=0;exitPerimeter=0;" edge="1" parent="WIyWlLk6GJQsqaUBKTNV-1" source="ASlL8XKFzpHZcGHlF637-8" target="ASlL8XKFzpHZcGHlF637-14">
          <mxGeometry width="50" height="50" relative="1" as="geometry">
            <mxPoint x="540" y="150" as="sourcePoint" />
            <mxPoint x="590" y="100" as="targetPoint" />
          </mxGeometry>
        </mxCell>
        <mxCell id="ASlL8XKFzpHZcGHlF637-17" value="" style="endArrow=classic;html=1;rounded=0;exitX=0.5;exitY=1;exitDx=0;exitDy=0;entryX=0.5;entryY=0;entryDx=0;entryDy=0;" edge="1" parent="WIyWlLk6GJQsqaUBKTNV-1" source="ASlL8XKFzpHZcGHlF637-14" target="ASlL8XKFzpHZcGHlF637-11">
          <mxGeometry width="50" height="50" relative="1" as="geometry">
            <mxPoint x="539.5" y="270" as="sourcePoint" />
            <mxPoint x="540" y="350" as="targetPoint" />
          </mxGeometry>
        </mxCell>
        <mxCell id="ASlL8XKFzpHZcGHlF637-27" value="" style="edgeStyle=orthogonalEdgeStyle;rounded=0;orthogonalLoop=1;jettySize=auto;html=1;" edge="1" parent="WIyWlLk6GJQsqaUBKTNV-1" source="ASlL8XKFzpHZcGHlF637-23" target="ASlL8XKFzpHZcGHlF637-26">
          <mxGeometry relative="1" as="geometry" />
        </mxCell>
        <mxCell id="ASlL8XKFzpHZcGHlF637-23" value="Create VectoreBaseCreator instance with task manager, model path and device(cude/cpu)" style="whiteSpace=wrap;html=1;strokeWidth=2;" vertex="1" parent="WIyWlLk6GJQsqaUBKTNV-1">
          <mxGeometry x="480" y="320" width="120" height="100" as="geometry" />
        </mxCell>
        <mxCell id="ASlL8XKFzpHZcGHlF637-25" style="edgeStyle=orthogonalEdgeStyle;rounded=0;orthogonalLoop=1;jettySize=auto;html=1;exitX=0.5;exitY=1;exitDx=0;exitDy=0;" edge="1" parent="WIyWlLk6GJQsqaUBKTNV-1" source="ASlL8XKFzpHZcGHlF637-23" target="ASlL8XKFzpHZcGHlF637-23">
          <mxGeometry relative="1" as="geometry" />
        </mxCell>
        <mxCell id="ASlL8XKFzpHZcGHlF637-29" value="" style="edgeStyle=orthogonalEdgeStyle;rounded=0;orthogonalLoop=1;jettySize=auto;html=1;" edge="1" parent="WIyWlLk6GJQsqaUBKTNV-1" source="ASlL8XKFzpHZcGHlF637-26" target="ASlL8XKFzpHZcGHlF637-28">
          <mxGeometry relative="1" as="geometry" />
        </mxCell>
        <mxCell id="ASlL8XKFzpHZcGHlF637-26" value="load sentence transformer model" style="whiteSpace=wrap;html=1;strokeWidth=2;" vertex="1" parent="WIyWlLk6GJQsqaUBKTNV-1">
          <mxGeometry x="480" y="460" width="120" height="60" as="geometry" />
        </mxCell>
        <mxCell id="ASlL8XKFzpHZcGHlF637-31" value="" style="edgeStyle=orthogonalEdgeStyle;rounded=0;orthogonalLoop=1;jettySize=auto;html=1;" edge="1" parent="WIyWlLk6GJQsqaUBKTNV-1" source="ASlL8XKFzpHZcGHlF637-28" target="ASlL8XKFzpHZcGHlF637-30">
          <mxGeometry relative="1" as="geometry" />
        </mxCell>
        <mxCell id="ASlL8XKFzpHZcGHlF637-32" value="YES" style="edgeLabel;html=1;align=center;verticalAlign=middle;resizable=0;points=[];" vertex="1" connectable="0" parent="ASlL8XKFzpHZcGHlF637-31">
          <mxGeometry x="-0.1333" y="6" relative="1" as="geometry">
            <mxPoint as="offset" />
          </mxGeometry>
        </mxCell>
        <mxCell id="ASlL8XKFzpHZcGHlF637-28" value="Task available?" style="rhombus;whiteSpace=wrap;html=1;strokeWidth=2;" vertex="1" parent="WIyWlLk6GJQsqaUBKTNV-1">
          <mxGeometry x="500" y="560" width="80" height="80" as="geometry" />
        </mxCell>
        <mxCell id="ASlL8XKFzpHZcGHlF637-34" value="" style="edgeStyle=orthogonalEdgeStyle;rounded=0;orthogonalLoop=1;jettySize=auto;html=1;" edge="1" parent="WIyWlLk6GJQsqaUBKTNV-1" source="ASlL8XKFzpHZcGHlF637-30" target="ASlL8XKFzpHZcGHlF637-33">
          <mxGeometry relative="1" as="geometry" />
        </mxCell>
        <mxCell id="ASlL8XKFzpHZcGHlF637-30" value="get task" style="whiteSpace=wrap;html=1;strokeWidth=2;" vertex="1" parent="WIyWlLk6GJQsqaUBKTNV-1">
          <mxGeometry x="480" y="700" width="120" height="60" as="geometry" />
        </mxCell>
        <mxCell id="ASlL8XKFzpHZcGHlF637-36" value="" style="edgeStyle=orthogonalEdgeStyle;rounded=0;orthogonalLoop=1;jettySize=auto;html=1;" edge="1" parent="WIyWlLk6GJQsqaUBKTNV-1" source="ASlL8XKFzpHZcGHlF637-33" target="ASlL8XKFzpHZcGHlF637-35">
          <mxGeometry relative="1" as="geometry" />
        </mxCell>
        <mxCell id="ASlL8XKFzpHZcGHlF637-43" value="" style="edgeStyle=orthogonalEdgeStyle;rounded=0;orthogonalLoop=1;jettySize=auto;html=1;" edge="1" parent="WIyWlLk6GJQsqaUBKTNV-1" source="ASlL8XKFzpHZcGHlF637-33" target="ASlL8XKFzpHZcGHlF637-42">
          <mxGeometry relative="1" as="geometry" />
        </mxCell>
        <mxCell id="ASlL8XKFzpHZcGHlF637-33" value="Task mode?" style="rhombus;whiteSpace=wrap;html=1;strokeWidth=2;" vertex="1" parent="WIyWlLk6GJQsqaUBKTNV-1">
          <mxGeometry x="500" y="840" width="80" height="80" as="geometry" />
        </mxCell>
        <mxCell id="ASlL8XKFzpHZcGHlF637-38" value="" style="edgeStyle=orthogonalEdgeStyle;rounded=0;orthogonalLoop=1;jettySize=auto;html=1;" edge="1" parent="WIyWlLk6GJQsqaUBKTNV-1" source="ASlL8XKFzpHZcGHlF637-35" target="ASlL8XKFzpHZcGHlF637-37">
          <mxGeometry relative="1" as="geometry" />
        </mxCell>
        <mxCell id="ASlL8XKFzpHZcGHlF637-35" value="Chunk document" style="whiteSpace=wrap;html=1;strokeWidth=2;" vertex="1" parent="WIyWlLk6GJQsqaUBKTNV-1">
          <mxGeometry x="220" y="921" width="120" height="60" as="geometry" />
        </mxCell>
        <mxCell id="ASlL8XKFzpHZcGHlF637-40" value="" style="edgeStyle=orthogonalEdgeStyle;rounded=0;orthogonalLoop=1;jettySize=auto;html=1;" edge="1" parent="WIyWlLk6GJQsqaUBKTNV-1" source="ASlL8XKFzpHZcGHlF637-37" target="ASlL8XKFzpHZcGHlF637-39">
          <mxGeometry relative="1" as="geometry" />
        </mxCell>
        <mxCell id="ASlL8XKFzpHZcGHlF637-37" value="Generate embeddings for each chunk" style="whiteSpace=wrap;html=1;strokeWidth=2;" vertex="1" parent="WIyWlLk6GJQsqaUBKTNV-1">
          <mxGeometry x="220" y="1041" width="120" height="60" as="geometry" />
        </mxCell>
        <mxCell id="ASlL8XKFzpHZcGHlF637-50" value="" style="edgeStyle=orthogonalEdgeStyle;rounded=0;orthogonalLoop=1;jettySize=auto;html=1;exitX=0.5;exitY=1;exitDx=0;exitDy=0;" edge="1" parent="WIyWlLk6GJQsqaUBKTNV-1" source="ASlL8XKFzpHZcGHlF637-39" target="ASlL8XKFzpHZcGHlF637-49">
          <mxGeometry relative="1" as="geometry">
            <mxPoint x="280" y="1163" as="sourcePoint" />
            <Array as="points">
              <mxPoint x="280" y="1263" />
              <mxPoint x="570" y="1263" />
            </Array>
          </mxGeometry>
        </mxCell>
        <mxCell id="ASlL8XKFzpHZcGHlF637-39" value="Combine all the chunk embeddings into a single file" style="whiteSpace=wrap;html=1;strokeWidth=2;" vertex="1" parent="WIyWlLk6GJQsqaUBKTNV-1">
          <mxGeometry x="220" y="1151" width="120" height="60" as="geometry" />
        </mxCell>
        <mxCell id="ASlL8XKFzpHZcGHlF637-41" value="VECTORIZE_DOC" style="text;html=1;align=center;verticalAlign=middle;resizable=0;points=[];autosize=1;strokeColor=none;fillColor=none;" vertex="1" parent="WIyWlLk6GJQsqaUBKTNV-1">
          <mxGeometry x="315" y="858" width="130" height="30" as="geometry" />
        </mxCell>
        <mxCell id="ASlL8XKFzpHZcGHlF637-46" value="" style="edgeStyle=orthogonalEdgeStyle;rounded=0;orthogonalLoop=1;jettySize=auto;html=1;" edge="1" parent="WIyWlLk6GJQsqaUBKTNV-1" source="ASlL8XKFzpHZcGHlF637-42" target="ASlL8XKFzpHZcGHlF637-45">
          <mxGeometry relative="1" as="geometry" />
        </mxCell>
        <mxCell id="ASlL8XKFzpHZcGHlF637-42" value="load template from json" style="whiteSpace=wrap;html=1;strokeWidth=2;" vertex="1" parent="WIyWlLk6GJQsqaUBKTNV-1">
          <mxGeometry x="780" y="921" width="120" height="60" as="geometry" />
        </mxCell>
        <mxCell id="ASlL8XKFzpHZcGHlF637-44" value="VECTORIZE_COURSE_TEMPLATE" style="text;html=1;align=center;verticalAlign=middle;resizable=0;points=[];autosize=1;strokeColor=none;fillColor=none;" vertex="1" parent="WIyWlLk6GJQsqaUBKTNV-1">
          <mxGeometry x="600" y="858" width="220" height="30" as="geometry" />
        </mxCell>
        <mxCell id="ASlL8XKFzpHZcGHlF637-48" value="" style="edgeStyle=orthogonalEdgeStyle;rounded=0;orthogonalLoop=1;jettySize=auto;html=1;" edge="1" parent="WIyWlLk6GJQsqaUBKTNV-1" source="ASlL8XKFzpHZcGHlF637-45" target="ASlL8XKFzpHZcGHlF637-47">
          <mxGeometry relative="1" as="geometry" />
        </mxCell>
        <mxCell id="ASlL8XKFzpHZcGHlF637-45" value="generate embeddings for each module and submodule" style="whiteSpace=wrap;html=1;strokeWidth=2;" vertex="1" parent="WIyWlLk6GJQsqaUBKTNV-1">
          <mxGeometry x="780" y="1041" width="120" height="60" as="geometry" />
        </mxCell>
        <mxCell id="ASlL8XKFzpHZcGHlF637-47" value="combine into single file" style="whiteSpace=wrap;html=1;strokeWidth=2;" vertex="1" parent="WIyWlLk6GJQsqaUBKTNV-1">
          <mxGeometry x="780" y="1151" width="120" height="60" as="geometry" />
        </mxCell>
        <mxCell id="ASlL8XKFzpHZcGHlF637-55" value="" style="edgeStyle=orthogonalEdgeStyle;rounded=0;orthogonalLoop=1;jettySize=auto;html=1;" edge="1" parent="WIyWlLk6GJQsqaUBKTNV-1" source="ASlL8XKFzpHZcGHlF637-49" target="ASlL8XKFzpHZcGHlF637-54">
          <mxGeometry relative="1" as="geometry" />
        </mxCell>
        <mxCell id="ASlL8XKFzpHZcGHlF637-49" value="save as npz file" style="whiteSpace=wrap;html=1;strokeWidth=2;" vertex="1" parent="WIyWlLk6GJQsqaUBKTNV-1">
          <mxGeometry x="510" y="1303" width="120" height="60" as="geometry" />
        </mxCell>
        <mxCell id="ASlL8XKFzpHZcGHlF637-51" value="" style="endArrow=classic;html=1;rounded=0;entryX=0.5;entryY=0;entryDx=0;entryDy=0;exitX=0.5;exitY=1;exitDx=0;exitDy=0;" edge="1" parent="WIyWlLk6GJQsqaUBKTNV-1" source="ASlL8XKFzpHZcGHlF637-47" target="ASlL8XKFzpHZcGHlF637-49">
          <mxGeometry width="50" height="50" relative="1" as="geometry">
            <mxPoint x="840" y="1221" as="sourcePoint" />
            <mxPoint x="280" y="1263" as="targetPoint" />
            <Array as="points">
              <mxPoint x="840" y="1263" />
              <mxPoint x="570" y="1263" />
            </Array>
          </mxGeometry>
        </mxCell>
        <mxCell id="ASlL8XKFzpHZcGHlF637-54" value="update status as task completed" style="whiteSpace=wrap;html=1;strokeWidth=2;" vertex="1" parent="WIyWlLk6GJQsqaUBKTNV-1">
          <mxGeometry x="510" y="1411" width="120" height="60" as="geometry" />
        </mxCell>
        <mxCell id="ASlL8XKFzpHZcGHlF637-59" value="" style="edgeStyle=orthogonalEdgeStyle;rounded=0;orthogonalLoop=1;jettySize=auto;html=1;exitX=1;exitY=0.5;exitDx=0;exitDy=0;" edge="1" parent="WIyWlLk6GJQsqaUBKTNV-1" source="ASlL8XKFzpHZcGHlF637-28" target="ASlL8XKFzpHZcGHlF637-58">
          <mxGeometry relative="1" as="geometry">
            <mxPoint x="680" y="600" as="sourcePoint" />
          </mxGeometry>
        </mxCell>
        <mxCell id="ASlL8XKFzpHZcGHlF637-58" value="Stop" style="ellipse;whiteSpace=wrap;html=1;strokeWidth=2;" vertex="1" parent="WIyWlLk6GJQsqaUBKTNV-1">
          <mxGeometry x="700" y="560" width="110" height="80" as="geometry" />
        </mxCell>
        <mxCell id="ASlL8XKFzpHZcGHlF637-60" value="No" style="text;html=1;align=center;verticalAlign=middle;resizable=0;points=[];autosize=1;strokeColor=none;fillColor=none;" vertex="1" parent="WIyWlLk6GJQsqaUBKTNV-1">
          <mxGeometry x="620" y="580" width="40" height="30" as="geometry" />
        </mxCell>
        <mxCell id="ASlL8XKFzpHZcGHlF637-61" value="" style="endArrow=classic;html=1;rounded=0;exitX=0.5;exitY=1;exitDx=0;exitDy=0;entryX=0;entryY=0.5;entryDx=0;entryDy=0;" edge="1" parent="WIyWlLk6GJQsqaUBKTNV-1">
          <mxGeometry width="50" height="50" relative="1" as="geometry">
            <mxPoint x="570" y="1470" as="sourcePoint" />
            <mxPoint x="480" y="729.0000000000002" as="targetPoint" />
            <Array as="points">
              <mxPoint x="570" y="1520" />
              <mxPoint x="160" y="1520" />
              <mxPoint x="160" y="729" />
            </Array>
          </mxGeometry>
        </mxCell>
      </root>
    </mxGraphModel>
  </diagram>
</mxfile>
